<?xml version="1.0" standalone="no"?>
<!DOCTYPE svg PUBLIC "-//W3C//DTD SVG 20010904//EN"
 "http://www.w3.org/TR/2001/REC-SVG-20010904/DTD/svg10.dtd">
<svg version="1.0" xmlns="http://www.w3.org/2000/svg"
 width="80.000000pt" height="100.000000pt" viewBox="0 0 80.000000 100.000000"
 preserveAspectRatio="xMidYMid meet">

<g transform="translate(0.000000,100.000000) scale(0.100000,-0.100000)"
fill="#000000" stroke="none">
<path d="M83 986 c16 -7 33 -19 38 -27 10 -16 12 -379 3 -426 -4 -21 -16 -35
-37 -46 -31 -15 -30 -16 63 -15 79 0 90 2 67 11 -41 16 -49 59 -45 247 l3 165
88 -194 87 -193 -76 -187 c-97 -235 -109 -260 -139 -271 -14 -5 -25 -12 -25
-15 0 -3 39 -5 88 -4 73 1 83 3 59 12 -19 8 -27 18 -27 34 0 21 140 377 146
370 7 -8 142 -337 148 -359 6 -24 2 -30 -26 -42 -31 -14 -27 -14 77 -15 99 0
108 1 84 14 -29 16 -25 6 -145 292 l-93 222 77 177 77 177 3 -184 c1 -101 0
-194 -3 -207 -3 -12 -19 -28 -38 -36 -30 -13 -25 -14 83 -14 101 0 111 1 87
12 -16 7 -33 19 -38 27 -11 18 -11 430 0 448 5 8 22 20 38 27 25 11 20 12 -57
13 l-85 1 -85 -196 c-75 -173 -86 -193 -95 -172 -5 12 -44 100 -87 193 l-77
170 -83 2 c-75 2 -80 1 -55 -11z"/>
</g>
</svg>
